<svg width="105" height="104" viewBox="0 0 105 104" fill="none" xmlns="http://www.w3.org/2000/svg">
<path d="M47.7947 48.226C48.5129 48.226 49.0951 47.6448 49.0951 46.9256V41.8603C49.0951 41.1421 48.5138 40.5599 47.7947 40.5599C47.0765 40.5599 46.4943 41.1412 46.4943 41.8603V46.9256C46.4943 47.6448 47.0756 48.226 47.7947 48.226Z" fill="black"/>
<path d="M58.4036 48.226C59.1218 48.226 59.704 47.6448 59.704 46.9256V41.8603C59.704 41.1421 59.1227 40.5599 58.4036 40.5599C57.6854 40.5599 57.1032 41.1412 57.1032 41.8603V46.9256C57.1032 47.6448 57.6854 48.226 58.4036 48.226Z" fill="black"/>
<path d="M47.7947 36.9508C48.5129 36.9508 49.0951 36.3696 49.0951 35.6505V30.5842C49.0951 29.866 48.5138 29.2838 47.7947 29.2838C47.0765 29.2838 46.4943 29.8651 46.4943 30.5842V35.6505C46.4943 36.3696 47.0756 36.9508 47.7947 36.9508Z" fill="black"/>
<path d="M58.4036 36.9508C59.1218 36.9508 59.704 36.3696 59.704 35.6505V30.5842C59.704 29.866 59.1227 29.2838 58.4036 29.2838C57.6854 29.2838 57.1032 29.8651 57.1032 30.5842V35.6505C57.1032 36.3696 57.6854 36.9508 58.4036 36.9508Z" fill="black"/>
<path d="M47.7947 25.6757C48.5129 25.6757 49.0951 25.0945 49.0951 24.3754V19.31C49.0951 18.5918 48.5138 18.0096 47.7947 18.0096C47.0765 18.0096 46.4943 18.5909 46.4943 19.31V24.3754C46.4943 25.0936 47.0756 25.6757 47.7947 25.6757Z" fill="black"/>
<path d="M58.4036 25.6757C59.1218 25.6757 59.704 25.0945 59.704 24.3754V19.31C59.704 18.5918 59.1227 18.0096 58.4036 18.0096C57.6854 18.0096 57.1032 18.5909 57.1032 19.31V24.3754C57.1032 25.0936 57.6854 25.6757 58.4036 25.6757Z" fill="black"/>
<path d="M47.7947 59.5035C48.5129 59.5035 49.0951 58.9222 49.0951 58.2031V53.1378C49.0951 52.4196 48.5138 51.8374 47.7947 51.8374C47.0765 51.8374 46.4943 52.4187 46.4943 53.1378V58.2031C46.4943 58.9213 47.0756 59.5035 47.7947 59.5035Z" fill="black"/>
<path d="M58.4036 59.5035C59.1218 59.5035 59.704 58.9222 59.704 58.2031V53.1378C59.704 52.4196 59.1227 51.8374 58.4036 51.8374C57.6854 51.8374 57.1032 52.4187 57.1032 53.1378V58.2031C57.1032 58.9213 57.6854 59.5035 58.4036 59.5035Z" fill="black"/>
<path d="M19.0625 49.9438C18.3443 49.9438 17.7621 50.5251 17.7621 51.2442V54.6811C17.7621 55.3993 18.3434 55.9814 19.0625 55.9814C19.7807 55.9814 20.3628 55.4002 20.3628 54.6811V51.2442C20.3619 50.526 19.7807 49.9438 19.0625 49.9438Z" fill="black"/>
<path d="M26.9066 49.9438C26.1884 49.9438 25.6062 50.5251 25.6062 51.2442V54.6811C25.6062 55.3993 26.1875 55.9814 26.9066 55.9814C27.6248 55.9814 28.2069 55.4002 28.2069 54.6811V51.2442C28.206 50.526 27.6248 49.9438 26.9066 49.9438Z" fill="black"/>
<path d="M19.0625 59.7147C18.3443 59.7147 17.7621 60.296 17.7621 61.0151V64.452C17.7621 65.1702 18.3434 65.7523 19.0625 65.7523C19.7807 65.7523 20.3628 65.1711 20.3628 64.452V61.0151C20.3619 60.2969 19.7807 59.7147 19.0625 59.7147Z" fill="black"/>
<path d="M26.9066 59.7147C26.1884 59.7147 25.6062 60.296 25.6062 61.0151V64.452C25.6062 65.1702 26.1875 65.7523 26.9066 65.7523C27.6248 65.7523 28.2069 65.1711 28.2069 64.452V61.0151C28.206 60.2969 27.6248 59.7147 26.9066 59.7147Z" fill="black"/>
<path d="M19.0625 69.4856C18.3443 69.4856 17.7621 70.0669 17.7621 70.786V74.2228C17.7621 74.941 18.3434 75.5232 19.0625 75.5232C19.7807 75.5232 20.3628 74.9419 20.3628 74.2228V70.786C20.3619 70.0669 19.7807 69.4856 19.0625 69.4856Z" fill="black"/>
<path d="M26.9066 69.4856C26.1884 69.4856 25.6062 70.0669 25.6062 70.786V74.2228C25.6062 74.941 26.1875 75.5232 26.9066 75.5232C27.6248 75.5232 28.2069 74.9419 28.2069 74.2228V70.786C28.206 70.0669 27.6248 69.4856 26.9066 69.4856Z" fill="black"/>
<path d="M19.0625 79.2542C18.3443 79.2542 17.7621 79.8354 17.7621 80.5545V83.9914C17.7621 84.7096 18.3434 85.2918 19.0625 85.2918C19.7807 85.2918 20.3628 84.7105 20.3628 83.9914V80.5545C20.3619 79.8354 19.7807 79.2542 19.0625 79.2542Z" fill="black"/>
<path d="M26.9066 79.2542C26.1884 79.2542 25.6062 79.8354 25.6062 80.5545V83.9914C25.6062 84.7096 26.1875 85.2918 26.9066 85.2918C27.6248 85.2918 28.2069 84.7105 28.2069 83.9914V80.5545C28.206 79.8354 27.6248 79.2542 26.9066 79.2542Z" fill="black"/>
<path d="M19.0625 89.0227C18.3443 89.0227 17.7621 89.604 17.7621 90.3231V93.7599C17.7621 94.4781 18.3434 95.0603 19.0625 95.0603C19.7807 95.0603 20.3628 94.479 20.3628 93.7599V90.3231C20.3619 89.604 19.7807 89.0227 19.0625 89.0227Z" fill="black"/>
<path d="M26.9066 89.0227C26.1884 89.0227 25.6062 89.604 25.6062 90.3231V93.7599C25.6062 94.4781 26.1875 95.0603 26.9066 95.0603C27.6248 95.0603 28.2069 94.479 28.2069 93.7599V90.3231C28.206 89.604 27.6248 89.0227 26.9066 89.0227Z" fill="black"/>
<path d="M87.2705 55.9818C87.9887 55.9818 88.5709 55.4006 88.5709 54.6814V51.2446C88.5709 50.5264 87.9896 49.9442 87.2705 49.9442C86.5523 49.9442 85.9701 50.5255 85.9701 51.2446L85.971 54.6824C85.971 55.4006 86.5523 55.9818 87.2705 55.9818Z" fill="black"/>
<path d="M79.4264 55.9818C80.1446 55.9818 80.7268 55.4006 80.7268 54.6814V51.2446C80.7268 50.5264 80.1455 49.9442 79.4264 49.9442C78.7082 49.9442 78.1261 50.5255 78.1261 51.2446V54.6824C78.1261 55.4006 78.7082 55.9818 79.4264 55.9818Z" fill="black"/>
<path d="M87.2705 65.7504C87.9887 65.7504 88.5709 65.1691 88.5709 64.45V61.0131C88.5709 60.2949 87.9896 59.7128 87.2705 59.7128C86.5523 59.7128 85.9701 60.294 85.9701 61.0131V64.45C85.971 65.1691 86.5523 65.7504 87.2705 65.7504Z" fill="black"/>
<path d="M79.4264 65.7504C80.1446 65.7504 80.7268 65.1691 80.7268 64.45V61.0131C80.7268 60.2949 80.1455 59.7128 79.4264 59.7128C78.7082 59.7128 78.1261 60.294 78.1261 61.0131V64.45C78.1261 65.1691 78.7082 65.7504 79.4264 65.7504Z" fill="black"/>
<path d="M87.2705 75.5212C87.9887 75.5212 88.5709 74.94 88.5709 74.2209V70.784C88.5709 70.0658 87.9896 69.4836 87.2705 69.4836C86.5523 69.4836 85.9701 70.0649 85.9701 70.784V74.2209C85.971 74.94 86.5523 75.5212 87.2705 75.5212Z" fill="black"/>
<path d="M79.4264 75.5212C80.1446 75.5212 80.7268 74.94 80.7268 74.2209V70.784C80.7268 70.0658 80.1455 69.4836 79.4264 69.4836C78.7082 69.4836 78.1261 70.0649 78.1261 70.784V74.2209C78.1261 74.94 78.7082 75.5212 79.4264 75.5212Z" fill="black"/>
<path d="M87.2705 85.2898C87.9887 85.2898 88.5709 84.7085 88.5709 83.9894V80.5526C88.5709 79.8344 87.9896 79.2522 87.2705 79.2522C86.5523 79.2522 85.9701 79.8335 85.9701 80.5526V83.9894C85.971 84.7085 86.5523 85.2898 87.2705 85.2898Z" fill="black"/>
<path d="M79.4264 85.2898C80.1446 85.2898 80.7268 84.7085 80.7268 83.9894V80.5526C80.7268 79.8344 80.1455 79.2522 79.4264 79.2522C78.7082 79.2522 78.1261 79.8335 78.1261 80.5526V83.9894C78.1261 84.7085 78.7082 85.2898 79.4264 85.2898Z" fill="black"/>
<path d="M87.2705 95.0584C87.9887 95.0584 88.5709 94.4771 88.5709 93.758V90.3211C88.5709 89.6029 87.9896 89.0208 87.2705 89.0208C86.5523 89.0208 85.9701 89.602 85.9701 90.3211V93.758C85.971 94.4771 86.5523 95.0584 87.2705 95.0584Z" fill="black"/>
<path d="M79.4264 95.0584C80.1446 95.0584 80.7268 94.4771 80.7268 93.758V90.3211C80.7268 89.6029 80.1455 89.0208 79.4264 89.0208C78.7082 89.0208 78.1261 89.602 78.1261 90.3211V93.758C78.1261 94.4771 78.7082 95.0584 79.4264 95.0584Z" fill="black"/>
<path d="M103.2 101.4H97.5987L97.5996 42.2506C97.5996 41.5324 97.0184 40.9503 96.2993 40.9503H71.0886V1.30037C71.0886 0.582166 70.5074 0 69.7883 0C46.0192 0 35.5009 10.5625 35.0667 11.0124C34.8319 11.2545 34.6995 11.58 34.6995 11.9173L34.7004 40.9491H10.033C9.31477 40.9491 8.7326 41.5303 8.7326 42.2494V101.399H1.80014C1.08194 101.399 0.499771 101.981 0.499771 102.7C0.499771 103.418 1.08103 104 1.80014 104H103.2C103.918 104 104.5 103.419 104.5 102.7C104.499 101.981 103.918 101.399 103.199 101.399L103.2 101.4ZM94.999 43.5506V101.4H71.0883V43.5506H94.999ZM58.815 101.4H46.9748V91.1943H58.814L58.815 101.4ZM60.1144 88.5946H45.6754C44.9572 88.5946 44.375 89.1758 44.375 89.895V101.4H37.3V80.1993H68.4884V101.4H61.4143V89.895C61.4143 89.1758 60.833 88.5946 60.1139 88.5946H60.1144ZM68.4887 77.5996H37.3004V67.4571H68.4887V77.5996ZM68.4887 2.61304V64.8573H37.3004V12.4837C39.2664 10.7436 49.1415 2.94965 68.4887 2.61234V2.61304ZM11.333 43.5513H34.7004L34.7013 101.401H11.3339L11.333 43.5513Z" fill="black"/>
</svg>
