<svg width="128" height="104" viewBox="0 0 128 104" fill="none" xmlns="http://www.w3.org/2000/svg">
<path d="M1.57575 0.000984838C1.27836 0.0135106 0.997673 0.142943 0.796291 0.362153C0.594906 0.581353 0.488488 0.872588 0.500989 1.17005C0.526032 1.79007 1.04984 2.27127 1.66964 2.24517H6.15753C8.99141 2.24517 10.9646 2.93095 12.4212 4.0687C13.8675 5.19915 14.8525 6.8464 15.5538 8.93175V8.97872L33.6907 69.4896C28.8606 70.1347 25.9066 73.5981 26.2113 77.2995C26.3793 79.3412 27.4666 81.3526 29.4836 82.7713C31.5005 84.1888 34.3783 85.0082 38.1316 84.9226H106.942H106.941C107.241 84.9268 107.531 84.8109 107.745 84.599C107.959 84.3882 108.079 84.1001 108.079 83.8005C108.079 83.4999 107.959 83.2118 107.745 83.0009C107.531 82.7901 107.241 82.6732 106.941 82.6774H38.1306H38.1316H38.0846C34.6925 82.7557 32.325 82.0239 30.792 80.9467C29.2592 79.8695 28.5204 78.4781 28.4077 77.1116C28.1855 74.4093 30.3214 71.5159 34.9992 71.4531V71.4541C35.0148 71.4552 35.0305 71.4552 35.0461 71.4541C35.0774 71.4562 35.1077 71.4562 35.139 71.4541C35.186 71.4573 35.2329 71.4573 35.2799 71.4541H35.3268H35.3258C35.3414 71.4552 35.3571 71.4552 35.3727 71.4541L35.5595 71.4082L102.593 60.9807C105.943 60.4598 109.241 60.0851 112.037 59.2041C114.831 58.3231 117.247 56.8378 118.208 54.2V54.153L127.463 21.2775C127.547 20.9591 127.486 20.6189 127.297 20.3485C127.108 20.0792 126.81 19.9049 126.482 19.8746L18.6375 11.5044L17.7025 8.32504V8.27807C16.9085 5.89505 15.6709 3.77309 13.7761 2.29298C11.8802 0.811809 9.36036 0.00182682 6.15705 0.00182682H1.66916L1.66811 0.000783008C1.63681 -0.000261003 1.60551 -0.000261003 1.57525 0.000783008L1.57575 0.000984838ZM19.3393 13.796L37.0088 15.1519C37.0004 15.2291 37.0004 15.3084 37.0088 15.3857L45.9375 67.5728L35.9341 69.1156L19.3393 13.794V13.796ZM39.2523 15.3387L55.6604 16.6017L61.1759 65.1895L48.1811 67.1999L39.2523 15.3414V15.3387ZM57.9048 16.7886L75.6224 18.1445V62.9431L63.4214 64.8136L57.9059 16.787L57.9048 16.7886ZM77.8659 18.3313L95.8161 19.7342L89.6921 60.6048C89.689 60.6517 89.689 60.6987 89.6921 60.7457L77.8659 62.5692V18.3313ZM98.0137 19.8741L111.617 20.9492L103.951 58.4528L103.95 58.4539V58.5008C103.363 58.5896 102.819 58.6887 102.22 58.7816L92.0298 60.3714L98.0128 19.8749L98.0137 19.8741ZM113.861 21.1371L124.941 21.9784L116.106 53.4483L116.059 53.5412C115.392 55.2489 113.827 56.278 111.385 57.0484C109.926 57.5088 108.154 57.8668 106.289 58.1705L113.863 21.1799L113.861 21.1809C113.862 21.1653 113.862 21.1496 113.861 21.134L113.861 21.1371ZM43.2268 86.7919C38.4897 86.7919 34.6258 90.6571 34.6258 95.3959C34.6258 100.135 38.4897 104 43.2268 104C47.9639 104 51.8278 100.134 51.8278 95.3959C51.8278 90.6571 47.9639 86.7919 43.2268 86.7919ZM97.0783 86.7919C92.3412 86.7919 88.4773 90.6571 88.4773 95.3959C88.4773 100.135 92.3412 104 97.0783 104C101.815 104 105.679 100.134 105.679 95.3959C105.679 90.6571 101.815 86.7919 97.0783 86.7919ZM43.2268 89.0361C46.7514 89.0361 49.5845 91.8699 49.5845 95.396C49.5845 98.9209 46.7517 101.756 43.2268 101.756C39.7021 101.756 36.869 98.9222 36.869 95.396C36.869 91.8701 39.7019 89.0361 43.2268 89.0361ZM97.0783 89.0361C100.603 89.0361 103.436 91.8699 103.436 95.396C103.436 98.9209 100.603 101.756 97.0783 101.756C93.5536 101.756 90.7205 98.9222 90.7205 95.396C90.7205 91.8701 93.5534 89.0361 97.0783 89.0361Z" fill="black"/>
</svg>
